<?xml version="1.0" encoding="UTF-8" standalone="no"?>
<!DOCTYPE svg PUBLIC "-//W3C//DTD SVG 1.1//EN" "http://www.w3.org/Graphics/SVG/1.1/DTD/svg11.dtd">
<svg width="100%" height="100%" viewBox="0 0 746 542" version="1.1" xmlns="http://www.w3.org/2000/svg" xmlns:xlink="http://www.w3.org/1999/xlink" xml:space="preserve" xmlns:serif="http://www.serif.com/" style="fill-rule:evenodd;clip-rule:evenodd;stroke-linejoin:round;stroke-miterlimit:2;">
    <g transform="matrix(1,0,0,1,-196.193,-525.333)">
        <path d="M671.333,525.333C820.718,525.333 942,646.615 942,796C942,945.385 820.718,1066.67 671.333,1066.67C521.948,1066.67 400.667,945.385 400.667,796C400.667,646.615 521.948,525.333 671.333,525.333ZM671.333,633.259C761.152,633.259 834.074,706.181 834.074,796C834.074,885.819 761.152,958.741 671.333,958.741C581.514,958.741 508.593,885.819 508.593,796C508.593,706.181 581.514,633.259 671.333,633.259Z" style="fill:url(#_Linear1);"/>
    </g>
    <g transform="matrix(1,0,0,1,-400.667,-525.333)">
        <path d="M887.902,633.704C921.867,678.936 942,735.135 942,796C942,945.385 820.718,1066.67 671.333,1066.67C521.948,1066.67 400.667,945.385 400.667,796C400.667,646.615 521.948,525.333 671.333,525.333C707.5,525.333 742.02,532.442 773.57,545.338C727.901,564.005 688.453,594.797 659.239,633.703C575.059,639.899 508.593,710.249 508.593,796C508.593,885.819 581.514,958.741 671.333,958.741C761.152,958.741 834.074,885.819 834.074,796C834.074,744.895 810.466,699.259 773.57,669.415C801.519,646.807 837.094,633.259 875.807,633.259C879.875,633.259 883.908,633.409 887.902,633.704Z" style="fill:url(#_Linear2);"/>
    </g>
    <g transform="matrix(1,0,0,1,-461.096,-640.785)">
        <path d="M948.332,1073.75C982.852,1071.21 1014.39,1057.88 1039.59,1037.12C1037.82,1080.72 1021.96,1130.03 992.288,1176.3C974.201,1180.11 955.451,1182.12 936.237,1182.12C900.07,1182.12 865.55,1175.01 834,1162.11C879.67,1143.45 919.118,1112.65 948.332,1073.75Z" style="fill:url(#_Linear3);"/>
    </g>
    <g transform="matrix(1,0,0,1,-461.096,-640.785)">
        <path d="M724.896,1074.05C732.563,1057.62 741.908,1041.26 752.918,1025.35C764.108,1009.17 776.334,994.449 789.239,981.322C799.776,1003.43 815.154,1022.79 834,1038.04C806.051,1060.64 770.477,1074.19 731.763,1074.19C729.463,1074.19 727.174,1074.14 724.896,1074.05Z" style="fill:url(#_Linear4);"/>
    </g>
    <g transform="matrix(1,0,0,1,-461.096,-640.785)">
        <path d="M937.122,748.713L937.394,748.715L938.021,748.721L938.319,748.724L938.977,748.734L939.21,748.738L940.084,748.756L940.286,748.761L940.965,748.779L941.275,748.788L941.861,748.807L942.177,748.818L942.842,748.843L943.058,748.851L943.892,748.888L944.242,748.905L944.754,748.931L945.156,748.952L945.614,748.978L946.036,749.002L946.47,749.029L946.832,749.051L947.338,749.085L947.633,749.105L948.194,749.145L948.332,749.155C948.933,749.956 949.53,750.76 950.122,751.567C942.991,761.447 934.843,771.014 925.712,780.074C907.77,797.878 887.902,811.87 867.579,821.811C858.333,807.839 846.99,795.374 834,784.867C837.493,782.041 841.105,779.357 844.828,776.823L844.831,776.821C845.759,776.189 846.694,775.567 847.635,774.954L847.654,774.942L848.336,774.501L848.364,774.483C849.3,773.881 850.242,773.288 851.191,772.705L851.247,772.671L851.908,772.267L851.956,772.237C852.67,771.804 853.387,771.376 854.108,770.954L854.143,770.933L854.808,770.545L854.896,770.495L855.543,770.122L855.606,770.086C856.325,769.675 857.048,769.269 857.773,768.868L857.856,768.823L858.487,768.477L858.6,768.415L859.241,768.068L859.314,768.029L860.04,767.64L860.789,767.245L860.798,767.24L861.497,766.876L861.618,766.813L862.224,766.501L862.358,766.432L863.001,766.106L863.077,766.067L863.817,765.696L864.559,765.329L864.637,765.291L865.279,764.977L865.43,764.904L866.02,764.62L866.17,764.547L866.824,764.237L866.895,764.203L867.65,763.849L868.386,763.508L868.514,763.45L869.117,763.175L869.293,763.095L869.872,762.834L870.035,762.761L870.712,762.461L870.766,762.437L871.536,762.1L871.546,762.096L872.266,761.785L872.433,761.714L873.009,761.469L873.205,761.387L873.78,761.146L873.951,761.075L874.672,760.777L874.688,760.771L875.46,760.457L875.556,760.419L876.2,760.161L876.397,760.083L876.955,759.863L877.166,759.78L877.744,759.556L877.917,759.489L878.668,759.203L879.435,758.915L879.588,758.858L880.186,758.637L880.405,758.556L880.952,758.358L881.175,758.277L881.762,758.067L881.932,758.007L882.701,757.736L883.46,757.474L883.654,757.408L884.221,757.215L884.459,757.135L885,756.954L885.231,756.877L885.837,756.679L885.994,756.628L886.772,756.377L886.843,756.355L887.534,756.136L887.757,756.066L888.305,755.896L888.557,755.819L889.098,755.654L889.333,755.583L889.972,755.392L890.102,755.354L890.883,755.125L891.032,755.082L891.655,754.904L891.9,754.834L892.437,754.683L892.698,754.61L893.244,754.46L893.48,754.396L894.177,754.208L894.255,754.187L895.04,753.98L895.238,753.928L895.821,753.778L896.083,753.711L896.614,753.577L896.882,753.51L897.439,753.373L897.669,753.316L898.454,753.127L899.242,752.942L899.472,752.889L900.031,752.76L900.306,752.698L900.835,752.58L901.108,752.519L901.683,752.393L901.9,752.346L902.694,752.178L902.784,752.159L903.485,752.014L903.74,751.962L904.284,751.853L904.568,751.796L905.1,751.692L905.374,751.639L905.978,751.524L906.171,751.488L906.97,751.34L907.138,751.31L907.77,751.197L908.042,751.149L908.578,751.056L908.868,751.007L909.408,750.916L909.678,750.871L910.331,750.766L910.481,750.741L911.286,750.615L911.5,750.583L912.093,750.493L912.378,750.451L912.911,750.373L913.206,750.331L913.757,750.254L914.02,750.218L914.758,750.118L914.829,750.109L915.64,750.004L915.885,749.974L916.455,749.903L916.749,749.868L917.283,749.805L917.578,749.771L918.148,749.707L918.397,749.679L919.213,749.592L919.278,749.586L920.029,749.509L920.296,749.483L920.853,749.43L921.154,749.402L921.692,749.354L921.986,749.328L922.583,749.277L922.809,749.258L923.63,749.193L923.787,749.181L924.454,749.132L924.736,749.112L925.286,749.074L925.591,749.054L926.137,749.02L926.426,749.002L927.065,748.966L927.254,748.955L928.081,748.912L928.291,748.902L928.912,748.873L929.205,748.861L929.752,748.838L930.059,748.826L930.618,748.807L930.898,748.797L931.605,748.776L931.731,748.772L932.563,748.752L932.807,748.747L933.401,748.735L933.703,748.73L934.251,748.723L934.557,748.72L935.133,748.715L935.399,748.713L936.237,748.711L937.122,748.713Z" style="fill:url(#_Linear5);"/>
    </g>
    <g transform="matrix(1,0,0,1,-461.096,-640.785)">
        <path d="M735.306,640.808C770.185,641.256 803.482,648.315 834,660.789L833.746,660.894L833.286,661.082L833.067,661.173L832.931,661.229L832.687,661.33L832.274,661.502L832.023,661.607L831.864,661.673L831.636,661.769L831.264,661.925L830.98,662.045L830.799,662.122L830.589,662.211L830.256,662.353L829.939,662.489L829.737,662.575L829.547,662.657L829.25,662.784L828.898,662.937L828.677,663.032L828.508,663.106L828.246,663.219L827.857,663.39L827.619,663.494L827.473,663.558L827.245,663.659L826.815,663.849L826.564,663.96L826.441,664.015L826.245,664.102L825.77,664.314L825.511,664.43L825.412,664.475L825.248,664.549L824.719,664.788L824.46,664.905L824.385,664.939L824.252,665L823.654,665.274L823.412,665.384L823.362,665.408L823.259,665.455L822.553,665.781L822.366,665.868L822.341,665.88L822.268,665.913L821.33,666.352L821.322,666.356C820.631,666.681 819.942,667.008 819.254,667.339L819.243,667.344L819.128,667.4L818.326,667.787L818.243,667.827L818.207,667.845L817.986,667.953L817.346,668.265L817.234,668.32L817.173,668.35L816.919,668.475L816.368,668.747L816.228,668.817L816.142,668.859L815.88,668.99L815.393,669.233L815.223,669.318L815.113,669.372L814.856,669.502L814.419,669.722L814.22,669.823L814.087,669.89L813.841,670.015L813.448,670.215L813.218,670.333L813.063,670.412L812.833,670.531L812.479,670.712L812.219,670.847L812.042,670.938L811.83,671.049L811.512,671.213L811.221,671.366L811.023,671.469L810.831,671.57L810.548,671.718L810.224,671.889L810.007,672.003L809.836,672.094L809.586,672.226L809.227,672.417L808.994,672.542L808.845,672.622L808.626,672.738L808.231,672.951L807.982,673.085L807.856,673.153L807.669,673.254L807.233,673.491L806.974,673.632L806.871,673.688L806.713,673.774L806.23,674.039L805.968,674.183L805.889,674.227L805.76,674.297L805.217,674.598L804.965,674.738L804.909,674.769L804.81,674.824L804.178,675.177L803.964,675.297L803.932,675.315L803.862,675.355L803.056,675.81L802.966,675.861L802.958,675.865C802.299,676.239 801.642,676.615 800.987,676.995L800.977,677L800.866,677.065L800.092,677.514L800.021,677.556L799.987,677.576L799.766,677.706L799.156,678.063L799.057,678.122L798.999,678.156L798.746,678.306L798.222,678.616L798.095,678.692L798.014,678.74L797.754,678.895L797.29,679.172L797.136,679.265L797.032,679.327L796.777,679.481L796.361,679.732L796.179,679.843L796.052,679.919L795.809,680.068L795.434,680.296L795.224,680.425L795.076,680.515L794.848,680.656L794.51,680.863L794.271,681.011L794.101,681.115L793.892,681.246L793.588,681.434L793.319,681.602L793.13,681.719L792.94,681.839L792.669,682.008L792.369,682.197L792.161,682.327L791.992,682.435L791.752,682.586L791.42,682.797L791.195,682.939L791.047,683.034L790.837,683.167L790.472,683.402L790.232,683.555L790.106,683.636L789.925,683.752L789.523,684.013L789.272,684.175L789.168,684.242L789.016,684.341L788.57,684.632L788.314,684.798L788.233,684.852L788.109,684.933L787.61,685.261L787.359,685.426L787.301,685.465L787.204,685.529L786.631,685.909L786.407,686.058L786.372,686.081L786.302,686.128L785.591,686.605L785.458,686.693L785.446,686.701C784.82,687.122 784.197,687.545 783.575,687.971L783.568,687.976L783.482,688.035L782.72,688.559L782.657,688.602L782.628,688.623L782.419,688.768L781.831,689.176L781.742,689.238L781.69,689.274L781.447,689.444L780.944,689.796L780.829,689.877L780.755,689.929L780.505,690.105L780.06,690.419L779.919,690.519L779.823,690.587L779.577,690.762L779.178,691.046L779.011,691.166L778.894,691.25L778.659,691.418L778.3,691.676L778.105,691.817L777.967,691.916L777.748,692.075L777.423,692.31L777.202,692.472L777.044,692.586L776.842,692.734L776.55,692.947L776.3,693.131L776.124,693.26L775.94,693.396L775.679,693.588L775.401,693.794L775.206,693.938L775.042,694.06L774.811,694.231L774.502,694.462L774.292,694.619L774.148,694.727L773.945,694.879L773.605,695.135L773.38,695.304L773.258,695.397L773.082,695.529L772.707,695.814L772.472,695.993L772.37,696.07L772.222,696.183L771.807,696.501L771.566,696.686L771.486,696.747L771.364,696.841L770.901,697.199L770.663,697.382L770.605,697.427L770.509,697.501L769.979,697.915L769.764,698.082L769.728,698.11L769.657,698.165L769.009,698.675L768.867,698.786L768.853,698.797C768.262,699.263 767.673,699.732 767.086,700.203L766.276,700.855L766.22,700.9L766.196,700.919L766.017,701.064L765.437,701.535L765.357,701.601L765.312,701.637L765.092,701.818L764.602,702.219L764.496,702.306L764.431,702.359L764.2,702.55L763.769,702.906L763.638,703.014L763.552,703.085L763.325,703.275L762.938,703.596L762.783,703.726L762.677,703.814L762.459,703.998L762.111,704.29L761.93,704.442L761.806,704.547L761.601,704.721L761.286,704.986L761.08,705.162L760.937,705.284L760.747,705.446L760.465,705.686L760.232,705.887L760.071,706.024L759.899,706.172L759.646,706.389L759.385,706.615L759.209,706.767L759.055,706.901L758.83,707.096L758.541,707.348L758.349,707.514L758.214,707.633L758.017,707.805L757.697,708.086L757.493,708.265L757.378,708.367L757.206,708.518L756.854,708.831L756.64,709.019L756.545,709.105L756.399,709.234L756.008,709.583L755.79,709.777L755.715,709.845L755.594,709.953L755.158,710.346L754.944,710.538L754.889,710.588L754.792,710.675L754.293,711.129L754.101,711.303L754.066,711.335L753.993,711.401L753.387,711.955L753.26,712.072L753.246,712.085C752.418,712.845 751.594,713.611 750.776,714.382L750.76,714.397L750.628,714.521L750.043,715.074L749.968,715.146L749.933,715.179L749.747,715.356L749.262,715.818L749.163,715.913L749.109,715.965L748.907,716.159L748.483,716.566L748.361,716.683L748.288,716.754L748.085,716.95L747.708,717.316L747.562,717.458L747.471,717.546L747.275,717.738L746.935,718.069L746.766,718.236L746.657,718.342L746.472,718.525L746.166,718.825L745.972,719.017L745.847,719.141L745.675,719.312L745.4,719.584L745.181,719.803L745.04,719.944L744.883,720.1L744.636,720.347L744.391,720.593L744.236,720.749L744.096,720.891L743.876,721.112L743.604,721.388L743.435,721.559L743.313,721.684L743.119,721.88L742.817,722.189L742.638,722.371L742.533,722.479L742.364,722.652L742.031,722.995L741.845,723.187L741.758,723.277L741.613,723.426L741.244,723.81L741.054,724.006L740.986,724.078L740.865,724.203L740.451,724.637L740.267,724.829L740.218,724.881L740.12,724.984L739.645,725.485L739.484,725.655L739.453,725.688L739.378,725.767L738.803,726.378L738.704,726.484L738.692,726.497C737.92,727.32 737.154,728.149 736.392,728.982L736.385,728.991L736.316,729.066L735.714,729.727L735.644,729.805L735.619,729.833L735.477,729.99L734.991,730.528L734.899,730.631L734.856,730.678L734.69,730.864L734.271,731.331L734.157,731.46L734.097,731.527L733.924,731.721L733.554,732.138L733.417,732.293L733.341,732.378L733.172,732.571L732.84,732.947L732.681,733.129L732.589,733.233L732.428,733.419L732.129,733.759L731.947,733.969L731.841,734.091L731.69,734.266L731.422,734.575L731.216,734.814L731.096,734.953L730.958,735.113L730.718,735.392L730.487,735.662L730.354,735.817L730.231,735.962L730.016,736.213L729.76,736.516L729.616,736.685L729.508,736.813L729.319,737.037L729.035,737.374L728.882,737.555L728.79,737.666L728.624,737.863L728.31,738.24L728.151,738.429L728.075,738.521L727.932,738.692L727.583,739.115L727.424,739.306L727.365,739.379L727.244,739.524L726.852,740.002L726.701,740.186L726.658,740.239L726.559,740.359L726.109,740.912L725.981,741.069L725.955,741.101L725.878,741.197L725.334,741.871L725.265,741.955L725.256,741.967C724.312,743.14 723.378,744.321 722.453,745.511L722.437,745.531L722.344,745.651L721.857,746.279L721.771,746.392L721.739,746.432L721.611,746.599L721.199,747.136L721.092,747.276L721.045,747.337L720.905,747.521L720.543,747.995L720.416,748.164L720.355,748.244L720.214,748.431L719.892,748.857L719.743,749.055L719.668,749.154C712.718,749.666 705.889,750.615 699.207,751.974C696.67,716.982 709.237,676.803 735.306,640.808Z" style="fill:url(#_Linear6);"/>
    </g>
    <defs>
        <linearGradient id="_Linear1" x1="0" y1="0" x2="1" y2="0" gradientUnits="userSpaceOnUse" gradientTransform="matrix(-270.354,-441.516,441.516,-270.354,839.45,996.549)"><stop offset="0" style="stop-color:rgb(177,0,0);stop-opacity:1"/><stop offset="1" style="stop-color:rgb(175,0,147);stop-opacity:1"/></linearGradient>
        <linearGradient id="_Linear2" x1="0" y1="0" x2="1" y2="0" gradientUnits="userSpaceOnUse" gradientTransform="matrix(3.06993e-14,-501.357,501.357,3.06993e-14,671.333,1049.49)"><stop offset="0" style="stop-color:rgb(17,170,25);stop-opacity:1"/><stop offset="1" style="stop-color:rgb(250,216,12);stop-opacity:1"/></linearGradient>
        <linearGradient id="_Linear3" x1="0" y1="0" x2="1" y2="0" gradientUnits="userSpaceOnUse" gradientTransform="matrix(103.614,52.1852,-52.1852,103.614,892.603,1086.26)"><stop offset="0" style="stop-color:rgb(47,14,29);stop-opacity:1"/><stop offset="1" style="stop-color:rgb(154,15,13);stop-opacity:0"/></linearGradient>
        <linearGradient id="_Linear4" x1="0" y1="0" x2="1" y2="0" gradientUnits="userSpaceOnUse" gradientTransform="matrix(91.5131,61.2609,-61.2609,91.5131,753.443,1017.43)"><stop offset="0" style="stop-color:rgb(154,15,13);stop-opacity:0"/><stop offset="1" style="stop-color:rgb(47,14,29);stop-opacity:1"/></linearGradient>
        <linearGradient id="_Linear5" x1="0" y1="0" x2="1" y2="0" gradientUnits="userSpaceOnUse" gradientTransform="matrix(-28.1193,-46.1482,46.1482,-28.1193,905.985,785.261)"><stop offset="0" style="stop-color:rgb(103,152,1);stop-opacity:0"/><stop offset="1" style="stop-color:rgb(42,62,1);stop-opacity:1"/></linearGradient>
        <linearGradient id="_Linear6" x1="0" y1="0" x2="1" y2="0" gradientUnits="userSpaceOnUse" gradientTransform="matrix(-51.5265,-40.219,40.219,-51.5265,787.011,722.996)"><stop offset="0" style="stop-color:rgb(42,62,1);stop-opacity:1"/><stop offset="1" style="stop-color:rgb(131,170,49);stop-opacity:0"/></linearGradient>
    </defs>
</svg>
